<?xml version="1.0" encoding="UTF-8" standalone="no"?>
<!DOCTYPE svg PUBLIC "-//W3C//DTD SVG 1.1//EN"
 "http://www.w3.org/Graphics/SVG/1.1/DTD/svg11.dtd">
<!-- Generated by graphviz version 2.50.0 (0)
 -->
<!-- Pages: 1 -->
<svg width="204pt" height="150pt"
 viewBox="0.00 0.00 204.00 150.00" xmlns="http://www.w3.org/2000/svg" xmlns:xlink="http://www.w3.org/1999/xlink">
<g id="graph0" class="graph" transform="scale(1 1) rotate(0) translate(4 146)">
<polygon fill="white" stroke="transparent" points="-4,4 -4,-146 200,-146 200,4 -4,4"/>
<!-- god -->
<g id="node1" class="node">
<title>god</title>
<g id="a_node1"><a xlink:href="https://www.google.ru/search?q=%22god%22" xlink:title="god">
<ellipse fill="#fde724" stroke="black" cx="26.72" cy="-18.44" rx="27" ry="18"/>
<text text-anchor="middle" x="26.72" y="-14.74" font-family="Times New Roman,serif" font-size="14.00">god</text>
</a>
</g>
</g>
<!-- moses -->
<g id="node2" class="node">
<title>moses</title>
<g id="a_node2"><a xlink:href="https://www.google.ru/search?q=%22moses%22" xlink:title="moses">
<ellipse fill="#20908c" stroke="black" cx="34.19" cy="-124.04" rx="33.29" ry="18"/>
<text text-anchor="middle" x="34.19" y="-120.34" font-family="Times New Roman,serif" font-size="14.00" fill="white">moses</text>
</a>
</g>
</g>
<!-- god&#45;&gt;moses -->
<g id="edge1" class="edge">
<title>god&#45;&gt;moses</title>
<g id="a_edge1"><a xlink:href="https://www.google.com/search?q=god-moses">
<path fill="none" stroke="black" d="M28.02,-36.84C29.17,-53.11 30.87,-77.12 32.19,-95.83"/>
<polygon fill="black" stroke="black" points="28.7,-96.13 32.9,-105.86 35.69,-95.64 28.7,-96.13"/>
</a>
</g>
</g>
<!-- joshua -->
<g id="node3" class="node">
<title>joshua</title>
<g id="a_node3"><a xlink:href="https://www.google.ru/search?q=%22joshua%22" xlink:title="joshua">
<ellipse fill="#414186" stroke="black" cx="127.53" cy="-63.32" rx="33.6" ry="18"/>
<text text-anchor="middle" x="127.53" y="-59.62" font-family="Times New Roman,serif" font-size="14.00" fill="white">joshua</text>
</a>
</g>
</g>
<!-- god&#45;&gt;joshua -->
<g id="edge2" class="edge">
<title>god&#45;&gt;joshua</title>
<g id="a_edge2"><a xlink:href="https://www.google.com/search?q=god-joshua">
<path fill="none" stroke="black" d="M49.34,-28.51C61.89,-34.1 77.78,-41.17 91.95,-47.48"/>
<polygon fill="black" stroke="black" points="90.86,-50.83 101.42,-51.7 93.71,-44.43 90.86,-50.83"/>
</a>
</g>
</g>
<!-- moses&#45;&gt;joshua -->
<g id="edge5" class="edge">
<title>moses&#45;&gt;joshua</title>
<g id="a_edge5"><a xlink:href="https://www.google.com/search?q=moses-joshua">
<path fill="none" stroke="black" d="M55.84,-109.96C68.21,-101.91 83.91,-91.7 97.46,-82.88"/>
<polygon fill="black" stroke="black" points="99.52,-85.72 106,-77.33 95.71,-79.85 99.52,-85.72"/>
</a>
</g>
</g>
<!-- the israelites -->
<g id="node4" class="node">
<title>the israelites</title>
<g id="a_node4"><a xlink:href="https://www.google.ru/search?q=%22the israelites%22" xlink:title="the israelites">
<ellipse fill="#472878" stroke="black" cx="140.72" cy="-113.7" rx="55.49" ry="18"/>
<text text-anchor="middle" x="140.72" y="-110" font-family="Times New Roman,serif" font-size="14.00" fill="white">the israelites</text>
</a>
</g>
</g>
<!-- moses&#45;&gt;the israelites -->
<g id="edge3" class="edge">
<title>moses&#45;&gt;the israelites</title>
<g id="a_edge3"><a xlink:href="https://www.google.com/search?q=moses-the israelites">
<path fill="none" stroke="black" d="M67.02,-120.86C70.36,-120.53 73.83,-120.19 77.36,-119.85"/>
<polygon fill="black" stroke="black" points="77.8,-123.33 87.41,-118.88 77.12,-116.36 77.8,-123.33"/>
</a>
</g>
</g>
<!-- joshua&#45;&gt;the israelites -->
<g id="edge4" class="edge">
<title>joshua&#45;&gt;the israelites</title>
<g id="a_edge4"><a xlink:href="https://www.google.com/search?q=joshua-the israelites">
<path fill="none" stroke="black" stroke-width="2" d="M132.22,-81.23C132.59,-82.68 132.98,-84.16 133.38,-85.66"/>
<polygon fill="black" stroke="black" stroke-width="2" points="130.04,-86.73 135.96,-95.52 136.81,-84.96 130.04,-86.73"/>
</a>
</g>
</g>
</g>
</svg>
