<?xml version="1.0" encoding="UTF-8" standalone="no"?>
<!DOCTYPE svg PUBLIC "-//W3C//DTD SVG 1.1//EN"
 "http://www.w3.org/Graphics/SVG/1.1/DTD/svg11.dtd">
<!-- Generated by graphviz version 2.50.0 (0)
 -->
<!-- Pages: 1 -->
<svg width="276pt" height="243pt"
 viewBox="0.00 0.00 276.00 243.00" xmlns="http://www.w3.org/2000/svg" xmlns:xlink="http://www.w3.org/1999/xlink">
<g id="graph0" class="graph" transform="scale(1 1) rotate(0) translate(4 218)">
<polygon fill="white" stroke="transparent" points="-4,25 -4,-218 272,-218 272,25 -4,25"/>
<text text-anchor="middle" x="134" y="13.6" font-family="Times New Roman,serif" font-size="12.00">Network Clustering Coefficient: 0.6667</text>
<!-- moses -->
<g id="node1" class="node">
<title>moses</title>
<g id="a_node1"><a xlink:href="https://www.google.ru/search?q=%22moses%22" xlink:title="moses&#10;Mentions: 13">
<ellipse fill="#20908c" stroke="black" cx="63.11" cy="-67.47" rx="62.87" ry="26.74"/>
<text text-anchor="middle" x="63.11" y="-71.27" font-family="Times New Roman,serif" font-size="14.00">moses</text>
<text text-anchor="middle" x="63.11" y="-56.27" font-family="Times New Roman,serif" font-size="14.00">Mentions: 13</text>
</a>
</g>
</g>
<!-- joshua -->
<g id="node2" class="node">
<title>joshua</title>
<g id="a_node2"><a xlink:href="https://www.google.ru/search?q=%22joshua%22" xlink:title="joshua&#10;Mentions: 5">
<ellipse fill="#414186" stroke="black" cx="78.1" cy="-135.84" rx="58.88" ry="26.74"/>
<text text-anchor="middle" x="78.1" y="-139.64" font-family="Times New Roman,serif" font-size="14.00">joshua</text>
<text text-anchor="middle" x="78.1" y="-124.64" font-family="Times New Roman,serif" font-size="14.00">Mentions: 5</text>
</a>
</g>
</g>
<!-- moses&#45;&gt;joshua -->
<g id="edge1" class="edge">
<title>moses&#45;&gt;joshua</title>
<g id="a_edge1"><a xlink:href="https://www.google.com/search?q=moses-joshua">
<path fill="none" stroke="black" d="M69.03,-94.49C69.36,-95.98 69.69,-97.5 70.03,-99.02"/>
<polygon fill="black" stroke="black" points="66.66,-100 72.22,-109.01 73.5,-98.5 66.66,-100"/>
</a>
</g>
</g>
<!-- the israelites -->
<g id="node4" class="node">
<title>the israelites</title>
<g id="a_node4"><a xlink:href="https://www.google.ru/search?q=%22the israelites%22" xlink:title="the israelites&#10;Mentions: 3">
<ellipse fill="#472878" stroke="black" cx="208.21" cy="-186.75" rx="60.21" ry="26.74"/>
<text text-anchor="middle" x="208.21" y="-190.55" font-family="Times New Roman,serif" font-size="14.00">the israelites</text>
<text text-anchor="middle" x="208.21" y="-175.55" font-family="Times New Roman,serif" font-size="14.00">Mentions: 3</text>
</a>
</g>
</g>
<!-- moses&#45;&gt;the israelites -->
<g id="edge4" class="edge">
<title>moses&#45;&gt;the israelites</title>
<g id="a_edge4"><a xlink:href="https://www.google.com/search?q=moses-the israelites">
<path fill="none" stroke="black" d="M92.12,-91.32C114.86,-110.01 146.65,-136.14 171.21,-156.34"/>
<polygon fill="black" stroke="black" points="169.3,-159.29 179.24,-162.94 173.74,-153.88 169.3,-159.29"/>
</a>
</g>
</g>
<!-- joshua&#45;&gt;the israelites -->
<g id="edge5" class="edge">
<title>joshua&#45;&gt;the israelites</title>
<g id="a_edge5"><a xlink:href="https://www.google.com/search?q=joshua-the israelites">
<path fill="none" stroke="black" stroke-width="2" d="M122.88,-153.36C132.68,-157.19 143.17,-161.3 153.32,-165.27"/>
<polygon fill="black" stroke="black" stroke-width="2" points="152.32,-168.64 162.91,-169.02 154.87,-162.12 152.32,-168.64"/>
</a>
</g>
</g>
<!-- god -->
<g id="node3" class="node">
<title>god</title>
<g id="a_node3"><a xlink:href="https://www.google.ru/search?q=%22god%22" xlink:title="god&#10;Mentions: 26">
<ellipse fill="#fde724" stroke="black" cx="200.73" cy="-26.45" rx="62.87" ry="26.74"/>
<text text-anchor="middle" x="200.73" y="-30.25" font-family="Times New Roman,serif" font-size="14.00">god</text>
<text text-anchor="middle" x="200.73" y="-15.25" font-family="Times New Roman,serif" font-size="14.00">Mentions: 26</text>
</a>
</g>
</g>
<!-- god&#45;&gt;moses -->
<g id="edge2" class="edge">
<title>god&#45;&gt;moses</title>
<g id="a_edge2"><a xlink:href="https://www.google.com/search?q=god-moses">
<path fill="none" stroke="black" d="M149.09,-41.84C141.18,-44.2 132.94,-46.66 124.83,-49.07"/>
<polygon fill="black" stroke="black" points="123.62,-45.78 115.03,-51.99 125.62,-52.49 123.62,-45.78"/>
</a>
</g>
</g>
<!-- god&#45;&gt;joshua -->
<g id="edge3" class="edge">
<title>god&#45;&gt;joshua</title>
<g id="a_edge3"><a xlink:href="https://www.google.com/search?q=god-joshua">
<path fill="none" stroke="black" d="M173.51,-50.72C155.65,-66.66 132.13,-87.64 112.91,-104.78"/>
<polygon fill="black" stroke="black" points="110.37,-102.36 105.24,-111.63 115.03,-107.58 110.37,-102.36"/>
</a>
</g>
</g>
</g>
</svg>
